<?xml version="1.0" standalone="no"?>
<!DOCTYPE svg PUBLIC "-//W3C//DTD SVG 20010904//EN"
 "http://www.w3.org/TR/2001/REC-SVG-20010904/DTD/svg10.dtd">
<svg version="1.0" xmlns="http://www.w3.org/2000/svg"
 width="980.000000pt" height="980.000000pt" viewBox="0 0 980.000000 980.000000"
 preserveAspectRatio="xMidYMid meet">
<metadata>
Created by potrace 1.16, written by Peter Selinger 2001-2019
</metadata>
<g transform="translate(0.000000,980.000000) scale(0.100000,-0.100000)"
fill="#000000" stroke="none">
<path d="M5005 9782 c-28 -9 -70 -29 -95 -44 -46 -26 -4803 -4781 -4849 -4846
-31 -45 -61 -142 -61 -201 0 -63 25 -145 61 -201 35 -56 4390 -4409 4440
-4438 100 -60 237 -64 350 -11 60 28 230 196 2471 2437 2326 2325 2408 2409
2440 2477 l33 70 0 2245 0 2245 -31 65 c-40 83 -102 145 -184 184 l-65 31
-2230 2 c-2096 2 -2233 1 -2280 -15z m4043 -2622 l2 -1885 -2179 -2179 -2180
-2180 -788 782 c-433 429 -1284 1277 -1891 1884 l-1102 1103 2182 2183 2183
2182 1885 -3 1885 -2 3 -1885z"/>
<path d="M7315 8550 c-252 -26 -499 -144 -681 -325 -377 -376 -440 -964 -151
-1408 221 -340 594 -532 996 -514 288 13 538 123 742 326 221 221 333 489 332
796 0 190 -34 339 -115 500 -89 177 -236 342 -399 449 -213 138 -473 201 -724
176z m260 -465 c243 -52 453 -256 509 -495 20 -84 20 -249 1 -325 -47 -185
-190 -363 -357 -444 -377 -183 -812 3 -945 404 -23 69 -27 97 -27 205 0 114 3
133 30 211 38 107 106 211 187 284 73 67 213 139 307 159 86 19 209 19 295 1z"/>
</g>
</svg>
