<?xml version="1.0" standalone="no"?>
<!DOCTYPE svg PUBLIC "-//W3C//DTD SVG 20010904//EN"
 "http://www.w3.org/TR/2001/REC-SVG-20010904/DTD/svg10.dtd">
<svg version="1.0" xmlns="http://www.w3.org/2000/svg"
 width="982.000000pt" height="830.000000pt" viewBox="0 0 982.000000 830.000000"
 preserveAspectRatio="xMidYMid meet">
<metadata>
Created by potrace 1.16, written by Peter Selinger 2001-2019
</metadata>
<g transform="translate(0.000000,830.000000) scale(0.100000,-0.100000)"
fill="#000000" stroke="none">
<path d="M4069 8287 c-108 -30 -211 -123 -250 -225 -19 -49 -23 -87 -29 -267
-9 -243 -23 -380 -52 -520 -84 -409 -262 -640 -629 -814 -87 -42 -1123 -480
-2534 -1073 -354 -149 -391 -167 -439 -208 -73 -64 -126 -183 -126 -281 0
-110 65 -236 158 -303 58 -43 -200 38 2657 -841 l2390 -736 90 3 90 4 350 164
c1018 475 1643 759 2185 992 140 60 327 147 416 192 514 264 815 581 954 1006
92 279 124 588 118 1130 l-3 305 -29 62 c-33 73 -113 154 -181 184 -25 11
-848 218 -1828 460 -980 241 -2086 514 -2457 606 -698 173 -762 185 -851 160z
m1057 -988 c313 -77 1235 -304 2049 -505 814 -201 1484 -369 1489 -374 11 -11
-10 -462 -28 -580 -39 -251 -118 -416 -268 -555 -148 -139 -285 -214 -779
-429 -563 -244 -1259 -560 -2073 -940 -136 -64 -254 -116 -261 -116 -14 0
-3747 1148 -3753 1155 -3 2 6 9 19 14 175 68 1844 778 1929 820 372 186 639
428 816 738 121 213 213 514 246 806 10 88 15 107 29 107 9 0 272 -63 585
-141z"/>
<path d="M9368 4140 c-27 -5 -737 -322 -1735 -775 -928 -422 -1842 -837 -2030
-923 l-342 -155 -2398 739 c-2389 736 -2398 739 -2484 739 -76 0 -93 -4 -151
-33 -79 -38 -149 -110 -186 -190 -23 -48 -27 -71 -27 -148 0 -84 2 -95 38
-166 39 -79 89 -133 158 -168 19 -10 1155 -363 2523 -784 2273 -700 2494 -766
2557 -766 43 0 87 7 119 19 27 10 989 446 2137 967 2331 1060 2157 973 2225
1112 30 61 33 74 33 162 0 86 -3 101 -33 161 -53 110 -154 185 -277 208 -64
12 -60 12 -127 1z"/>
<path d="M9347 2630 c-20 -6 -948 -424 -2062 -930 l-2024 -920 -2388 736
c-2543 784 -2467 762 -2583 734 -164 -39 -289 -212 -278 -386 8 -129 88 -253
199 -310 72 -36 4984 -1545 5051 -1551 31 -3 78 0 105 6 26 7 995 443 2152
969 1467 666 2118 967 2151 993 56 44 103 115 124 188 67 231 -101 464 -344
477 -36 2 -82 -1 -103 -6z"/>
</g>
</svg>
